Patient4_TMGait_0pt7_01_left_32_EMG.mot
version=1
nRows=37
nColumns=33
inDegrees=no
endheader
time	1LAddLong	2LGlutMax	3LGlutMed	4LIliopsoas	5LSemiMemb	6LBicFemLong	7LRecFem	8LVastMed	9LVastLat	10LGasMed	11LTibAnt	12lTibPost	13LPeroneusLong	14LSol	15LExtDigLong	16LFlexDigLong	17RAddLong	18RGlutMax	19RGlutMed	20RIliopsoas	21RSemiMemb	22RBicFemLong	23RRecFem	24RVastMed	25RVastLat	26RGasMed	27RTibAnt	28RTibPost	29RPeroneusLong	30RSol	31RExtDigLong	32RFlexDigLong
36.95	0.021973	0.35294	-0.063477	0.009613	0.004578	-0.044708	-0.070343	-0.00061	0.18829	-0.052338	0.05249	0.007477	0.085297	0.091553	0.049286	-0.030823	-0.066223	-0.070496	-0.34134	0.049744	0.18585	-0.18601	-0.35812	0.34592	0.17166	0.000458	0.10117	-0.01709	-0.2359	0.15915	-0.003662	-0.00351
36.951	0.00946	0.31265	-0.093842	0.000458	-0.035553	-0.036774	-0.052338	0.007477	0.16968	-0.048828	0.075684	-0.001678	0.090637	0.04715	0.13916	-0.015106	-0.046692	-0.13565	-0.47028	0.073395	-0.10605	-0.29587	-0.30991	0.62378	-0.038147	0.004425	0.17929	-0.035858	-0.12833	0.061646	-0.005188	0.000916
36.952	0.002136	0.3067	-0.10529	-0.00885	-0.004272	-0.046539	-0.048828	0.007935	0.15701	-0.005035	0.084381	0.012512	0.018005	-0.021057	0.22903	-0.016632	-0.021057	-0.13886	-0.16327	0.027161	-0.06134	-0.32013	0.049591	0.2858	-0.64179	-0.033569	0.27252	-0.035706	0.11093	-0.24277	-0.00946	-0.009308
36.953	0.025482	0.34332	-0.099792	0.001526	-0.007324	-0.029907	-0.034332	0.010681	0.16174	0.023193	0.086365	0.007019	-0.016174	-0.067596	0.046234	-0.02655	-0.026245	-0.17319	-0.10666	-0.028687	0.098267	-0.32791	0.12253	-0.069885	-0.29205	-0.049591	-0.11551	-0.072937	0.34698	-0.28946	-0.005493	-0.006409
36.954	0.019989	0.33096	-0.090179	0.002747	0.006866	-0.027161	-0.035706	0.009918	0.15121	0.014496	-0.034637	0.007019	0.014343	-0.021667	-0.18082	-0.025482	0.014496	-0.18875	-0.23697	-0.10254	0.056915	-0.25421	0.15335	-0.32669	-0.036316	-0.042725	-0.15427	-0.26703	0.24735	-0.33127	-0.002136	-0.019836
36.955	0.012054	0.36133	-0.10544	-0.001984	-0.003662	-0.022888	-0.028992	0.007782	0.15778	0.005951	-0.005035	-0.003815	0.025177	0.069122	-0.15091	-0.040894	0.008392	-0.2034	-0.03891	-0.17853	0.014801	-0.16495	0.23102	-0.25787	0.11414	-0.028992	0.18601	-0.011444	-0.090027	-0.89722	-0.003967	-0.033722
36.956	0.010529	0.40298	-0.11856	-0.003052	0.002136	-0.032959	-0.019226	0.005341	0.14694	-0.006714	0.080109	0.005188	0.060577	0.095825	0.14587	-0.023956	-0.00946	-0.23041	0.38788	-0.09079	-0.060272	-0.10086	0.30594	-0.30228	0.10269	-0.03418	0.2182	0.23178	-0.25787	-0.87387	0.001526	-0.033264
36.957	0.016785	0.39307	-0.12039	-0.003815	-0.007324	-0.04715	-0.029602	0.01297	0.14938	-0.009918	0.13962	0.000153	0.092926	0.001831	0.084381	-0.018616	-0.042114	-0.20569	-0.01297	0.033264	-0.019073	0.035706	-0.087433	-0.32227	-0.3479	-0.010834	-0.4039	0.10849	-0.30426	-0.55359	-0.00412	-0.023041
36.958	0.012512	0.36591	-0.074463	-0.010681	-0.018158	-0.050812	-0.034332	0.006409	0.15656	-0.037384	-0.092316	0.006866	0.13519	0.02655	0.14832	-0.01236	-0.033875	-0.24277	-0.17151	0.096588	0.005188	0.043793	-0.21774	-0.26169	-0.65247	0.002747	-0.35202	0.024414	-0.53314	0.26001	0.000916	-0.016785
36.959	0.019989	0.35461	-0.021973	0.001678	0.001984	-0.033112	-0.019989	0.01297	0.16373	-0.037842	-0.18478	0.00885	0.14191	0.010681	-0.006256	-0.006256	0.005035	-0.21545	-0.037842	0.15152	-0.018921	-0.009003	0.088501	-0.06134	-0.66071	0.002747	-0.047607	0.025482	-0.19684	0.74402	0	-0.013733
36.96	0.009918	0.34836	-0.033875	0.00946	0.015259	-0.027771	-0.023804	0.014038	0.1535	-0.009003	-0.078125	0.004578	0.045319	0.025635	-0.095978	0.001984	0.020294	-0.16617	-0.066681	0.16586	-0.008087	-0.048676	0.16907	0.082397	-0.047913	0.011749	0.30945	0.023499	0.22156	0.53299	-0.00351	-0.005341
36.961	0.009308	0.35721	-0.054169	0.034485	-0.008698	-0.037689	-0.03891	0.008087	0.14526	0.003662	0.014191	-0.004272	0.062714	0.005035	-0.1355	-0.013885	0.021362	-0.17777	-0.039978	0.10986	-0.021057	-0.072327	-0.11185	-0.36057	0.72433	-0.012665	0.79468	-0.001068	0.11292	0.70587	-0.002899	-0.007935
36.962	0.003662	0.35996	-0.001678	0.020905	-0.00061	-0.012054	-0.020142	0.005035	0.15015	0.001831	0.056458	0.005341	0.088348	-0.048828	-0.14404	0.00351	0.011444	-0.16876	0.028992	0.070801	0.009155	-0.078888	-0.33096	-0.33249	1.2	0.000305	0.37735	0.002136	0.066833	0.95062	0.009308	-0.001831
36.963	0.011902	0.37369	0.055389	-0.008392	0.015717	-0.035706	-0.032043	0.007019	0.14328	0.009613	0.077667	0.007935	0.13519	-0.064392	-0.094452	0.009155	0.008698	-0.15442	0.14404	0.028687	-0.003052	-0.067291	-0.39032	0.28717	1.0898	0.020447	-0.06546	0.013123	-0.052338	0.69	0.000458	-0.003662
36.964	0.001068	0.39291	0.065765	0.001678	0.005951	-0.02243	-0.022583	0.008087	0.1326	-0.000916	0.11307	0.00061	0.14526	-0.065765	0.016022	0.009003	0.020447	-0.10925	0.031891	0.030518	-0.003357	-0.039673	-0.22079	0.47318	0.76004	0.018005	-0.041351	-0.058289	-0.31586	0.47882	-0.007019	-0.015411
36.965	0.005951	0.4042	0.079193	0.000458	0.021362	-0.026703	-0.006866	0.007935	0.12405	-0.000458	0.085602	0.00412	0.1001	0.002441	0.007935	-0.002747	-0.000305	-0.12955	-0.26352	0.017548	0.001678	-0.019073	-0.19852	0.44876	0.40527	0.02182	-0.099182	-0.59219	-0.44067	0.34576	-0.003052	-0.006256
36.966	0.002441	0.39002	0.071106	0.007172	0.00946	-0.034027	0.00412	0.014343	0.1062	-0.003815	0.003967	0.000458	0.044098	0.083313	0.2269	0.015717	0.010071	-0.18509	-0.3804	-0.02594	-0.018005	-0.041962	0.027008	0.071106	-0.38055	-0.025177	-0.12711	0.029907	-0.61005	0.066833	-0.004425	-0.004272
36.967	-0.003357	0.36529	0.042572	0.010223	-0.014496	-0.043488	0.008392	0.012665	0.1001	-0.020599	-0.086975	0.006409	-0.032806	0.042877	0.61722	0.024567	-0.00946	-0.18143	-0.24704	-0.02594	-0.003357	-0.053101	0.18478	0.058899	-1.1154	-0.05127	0.15945	0.4007	-0.38773	0.20294	-0.002441	-0.005493
36.968	0.014038	0.36255	0.070038	0.006256	-0.03891	-0.041199	0.034485	0.006409	0.09613	-0.029297	-0.042114	0.014191	0.056305	-0.00885	0.18799	0.009766	-0.007629	-0.15884	0.094757	-0.072479	-0.013428	-0.057678	0.12726	-0.47211	-1.2303	-0.05661	0.52475	-0.13901	-0.27145	-0.40573	-0.003815	-0.007629
36.969	0.011597	0.3215	0.058136	0.002289	-0.086365	-0.043335	0.034485	0.010681	0.095673	-0.033569	0.042114	0.002441	0.21301	-0.049286	-0.42053	0.00824	0.002747	-0.17838	0.36072	-0.071106	-0.020142	-0.072632	-0.019073	-0.58899	-0.77743	-0.041656	0.77316	0.18875	-0.37674	-0.50964	-0.003052	-0.018005
36.97	0.019989	0.29526	-0.013123	0.001221	0.0177	-0.039825	0.028381	0.005035	0.092163	-0.037689	0.069885	0.005493	0.16968	0.007019	-0.41733	0.011902	0.006866	-0.27939	0.013428	-0.075378	-0.02594	-0.075378	-0.19318	-0.21271	-0.64423	-0.015717	1.3194	0.24582	-0.12528	-0.92545	0.000305	-0.010376
36.971	-0.001221	0.22079	-0.1503	0.005035	0.050812	-0.027618	0.023346	0.008698	0.1001	-0.045319	-0.016632	0.013885	0.086517	-0.015869	-0.19043	0.010986	0.019379	-0.32761	-0.12772	-0.062866	-0.040741	-0.060272	-0.064697	-0.24277	-0.57327	0.024719	-0.76691	-0.004578	0.40009	-1.1501	-0.002289	0.001526
36.972	-0.000153	0.18692	-0.08606	-0.010986	0.022736	0.003662	0.001221	0.011749	0.095825	-0.009155	-0.036774	-0.000305	-0.010986	-0.083313	-0.24368	0.012054	0.023956	-0.26932	-0.006866	-0.018463	-0.044708	-0.056763	0.095978	-0.36072	-0.44037	0.037842	-1.0869	0.001526	0.28046	-0.6517	0.000153	0.00061
36.973	0.004883	0.19379	-0.090179	-0.002594	0.014801	-0.006104	0.015106	0.013733	0.092621	0.028229	-0.025635	0.002594	0.043488	-0.1152	-0.17716	0.011749	0.022278	-0.22568	0.02594	-0.014648	-0.032501	-0.036774	0.11536	-0.466	-0.3305	0.023956	-0.026093	-0.01236	0.17273	-0.41122	-0.002441	-0.000305
36.974	0.011139	0.15595	-0.12787	0.006561	0.017395	-0.003662	0.023956	0.009918	0.079193	0.064697	0.003662	0.001678	0.046692	-0.16113	-0.13977	0.00946	0.01358	-0.36636	0.29968	-0.009613	-0.021362	-0.036926	0.085754	-0.3389	-0.21469	0.010223	-0.14664	-0.015411	0.38101	-0.61844	-0.001831	0.003815
36.975	0.010376	0.1532	-0.19501	0.008087	-0.007629	-0.018463	0.031128	0.006714	0.082397	0.06958	0.003815	0.003204	0.2652	-0.24307	-0.056458	0.013733	0.002594	-0.37659	0.1918	0.036163	-0.02243	-0.028839	0.019226	-0.050201	-0.094147	-0.017242	-0.66391	-0.00946	0.45013	-0.30197	-0.001068	-0.006714
36.976	0.006104	0.14511	-0.20752	0.022278	0.009918	-0.017853	0.022736	0.009918	0.072479	0.058746	0.000458	0.007782	0.53101	-0.21194	0.026093	-0.000305	-0.021362	-0.34973	0.064087	0.043793	-0.007629	-0.023804	-0.14969	0.20294	0.063324	-0.029297	-1.1769	-0.03006	0.41565	-0.00351	-0.001678	-0.009766
36.977	0.006561	0.10895	-0.23712	0.007629	0.001373	0.004425	0.027313	0.009003	0.080261	0.032959	0.004272	0.003967	0.36194	-0.26047	0.096588	-0.007019	0.010986	-0.41657	-0.012512	-0.015259	-0.005646	-0.046387	-0.019073	0.25024	0.35385	-0.023651	-0.44067	-0.055084	0.20004	0.29526	-0.000458	-0.009918
36.978	0.011749	0.12604	-0.224	-0.019836	-0.004272	-0.006561	0.018463	0.007782	0.093231	0.004425	-0.003357	0.010681	0.015869	-0.24796	0.11581	0.008698	0.038757	-0.39856	0.10468	-0.12009	0.002289	-0.069885	0.12054	0.20065	0.29541	-0.020905	-0.29846	-0.024719	0.021667	0.67413	-0.00473	-0.011902
36.979	0.006714	0.13412	-0.13458	-0.018311	0.003662	-0.034637	-0.000305	0.007019	0.080261	-0.00412	0.019836	0.014648	-0.21225	-0.14618	0.058441	0.020447	0.041199	-0.31876	0.18372	-0.20432	-0.002899	-0.06485	0.30456	0.14694	0.17593	-0.003052	-0.14435	-0.017242	-0.06897	1.3895	-0.001068	-0.003357
36.98	0.009308	0.14267	-0.007172	-0.032043	-0.009918	-0.019989	-0.016022	-0.000763	0.078583	-0.023499	0.015869	0.002136	-0.032501	-0.1532	0.015869	-0.002136	0.032654	-0.29266	0.070038	-0.14252	-0.11337	-0.020294	0.3305	0.0737	0.066528	0.017548	0.1152	-0.009003	-0.12955	1.6963	-0.005798	0.003662
36.981	0.010529	0.073395	-0.006409	-0.020905	0.011139	-0.034332	-0.020599	0.005798	0.073853	-0.025635	0.006561	0.013275	-0.15869	-0.15808	0.065613	0.003204	0.019073	-0.36789	-0.026398	0.08194	-0.19486	-0.016785	0.1474	0.081787	0.082855	0.018616	0.049286	-0.011749	-0.080261	0.78781	-0.005035	-0.001373
36.982	0.012665	0.032959	-0.083466	0.009003	0.003662	-0.032959	-0.002136	0.001068	0.063629	-0.011902	0.017853	0.009766	-0.11597	-0.15961	0.027618	-0.002747	0.022278	-0.37949	-0.061035	0.30594	-0.13351	0.010223	0.23819	0.24109	0.12619	-0.013733	-0.086212	-0.041962	-0.005035	-0.33096	-0.002289	-0.003815
36.983	0.02121	0.019073	-0.090942	0.020752	-0.005798	-0.036316	-0.003662	0.002747	0.063782	0.014648	0.033264	0.002289	-0.043488	-0.20966	-0.005341	-0.001831	-0.016174	-0.42862	-0.007935	0.3125	-0.032959	0.06012	0.42343	0.21698	0.062408	-0.028534	-0.27664	-0.12894	0.002136	-1.1124	-0.001678	-0.010071
36.984	0.020294	0.061798	0.000916	0.014496	0.003052	-0.031128	0.003357	0.003357	0.065918	0.011292	0.027924	0.009155	-0.019531	-0.13901	0.050354	-0.001373	-0.036163	-0.38101	0.11414	0.11475	-0.026245	0.014954	0.40207	0.072327	0.030823	-0.085297	0.015717	-0.16327	0.023346	-1.3469	-0.001678	-0.015869
36.985	0.019684	0.066986	0.24811	0.029449	0.003204	-0.044098	0.011139	0.001068	0.05722	-0.007477	0.049133	0.010071	0.05661	-0.10895	0.19989	0.010529	-0.022278	-0.38589	0.20767	0.049744	0.084381	0.001221	0.37155	-0.041351	0.29404	-0.031586	0.14297	0.006409	-0.16556	-1.1864	-0.002594	-0.024414
36.986	0.021667	0.014191	0.18204	0.045166	0.00824	-0.050049	0.006256	-0.000305	0.053711	-0.019836	0.062103	0.01358	0.041656	-0.27313	0.41657	-0.003357	-0.012817	-0.41916	0.19592	0.033417	0.103	-0.079956	0.37338	-0.10162	0.55237	0.069885	-0.1326	0.1416	-0.11002	-0.33127	-0.003204	-0.026703
